# xmcd
#
# Track frame offsets: 
#        150
#        18906
#        39458
#        56792
#        77799
#        105181
#        121958
#        150817
#        171786
#        185779
#        208217
#        224265
#        250322
#        270174
#        290037
#        306289
#
# Disc length: 4339 seconds
#
# Revision: 0
# Processed by: cddbd v1.5.2PL0 Copyright (c) Steve Scherf et al.
# Submitted via: ExactAudioCopy v0.95b4
#
DISCID=dc10f110
DTITLE=Jimmy Buffett - Feeding Frenzy 
DYEAR=1990
DGENRE=
TTITLE0=You'll Never Work in Dis Bidness Again
TTITLE1=The City
TTITLE2=Last Mango in Paris
TTITLE3=Come Monday
TTITLE4=Today's Message
TTITLE5=A Love Song (from a Different Point of View)
TTITLE6=One Particular Harbour
TTITLE7=Honey Do
TTITLE8=Cheeseburger in Paradise
TTITLE9=A Pirate Looks at 40
TTITLE10=Jolly Man
TTITLE11=Gypsies in the Palace
TTITLE12=Fins
TTITLE13=Margaritaville
TTITLE14=Jamaica Farewell
TTITLE15=Volcano
EXTD=
EXTT0=
EXTT1=
EXTT2=
EXTT3=
EXTT4=
EXTT5=
EXTT6=
EXTT7=
EXTT8=
EXTT9=
EXTT10=
EXTT11=
EXTT12=
EXTT13=
EXTT14=
EXTT15=
PLAYORDER=
